<mxfile host="app.diagrams.net" modified="2024-04-22T15:28:32.874Z" agent="Mozilla/5.0 (Windows NT 10.0; Win64; x64) AppleWebKit/537.36 (KHTML, like Gecko) Chrome/123.0.0.0 Safari/537.36" version="24.2.7" etag="uFitoA1LeOITkETSf1bz" type="github">
  <diagram name="Page-1" id="8Psc0w5pOtjklEjKOJKj">
    <mxGraphModel>
      <root>
        <mxCell id="0" />
        <mxCell id="1" parent="0" />
      </root>
    </mxGraphModel>
  </diagram>
</mxfile>
